# xmcd
#
# Track frame offsets: 
#        150
#        23930
#        38475
#        54260
#        70507
#        88105
#        108452
#        133365
#        146805
#        167677
#        192890
#
# Disc length: 2833 seconds
#
# Revision: 27
# Processed by: cddbd v1.5.2PL0 Copyright (c) Steve Scherf et al.
# Submitted via: ExactAudioCopy v1.5
#
DISCID=950b0f0b
DTITLE=Terence Trent D'Arby - Introducing the hardline
DYEAR=1987
DGENRE=Pop
TTITLE0=If you all get to heaven
TTITLE1=If you let me stay
TTITLE2=Wishing well
TTITLE3=I'll never turn my back on you
TTITLE4=Dance little sister
TTITLE5=Seven more days
TTITLE6=Let's go forward
TTITLE7=Rain
TTITLE8=Sign your name
TTITLE9=As yet untitled
TTITLE10=Who's loving you
EXTD=
EXTT0=
EXTT1=
EXTT2=
EXTT3=
EXTT4=
EXTT5=
EXTT6=
EXTT7=
EXTT8=
EXTT9=
EXTT10=
PLAYORDER=
